<svg width="161" height="73" viewBox="0 0 161 73" fill="none" xmlns="http://www.w3.org/2000/svg">
<g clip-path="url(#clip0)">
<path d="M140.501 47.9101C140.421 47.7704 140.176 47.3525 139.052 47.3525C137.863 47.3525 136.407 47.8134 135.415 48.1591C135.011 48.3104 134.585 48.3919 134.153 48.4003C132.817 48.4003 132.135 47.4716 131.526 46.4843C128.648 45.4843 126.063 43.5546 123.975 40.956C125.878 41.4383 127.812 41.792 129.764 42.0146C129.786 41.8411 129.824 41.6701 129.878 41.5038C129.958 41.2636 130.072 41.0363 130.218 40.829C127.7 40.5542 125.213 40.0505 122.787 39.3241C121.036 36.6708 119.754 33.4843 119.105 29.9804C120.22 30.2929 121.426 30.5663 122.699 30.8075C122.386 30.3241 122.102 29.8427 121.859 29.3827C120.785 29.1503 119.792 28.9013 118.89 28.6298C118.52 25.9442 118.533 23.2199 118.929 20.538C118.147 21.4833 117.638 22.4482 117.429 23.3954C117.41 23.8339 117.399 24.2743 117.399 24.7226C117.4 25.8879 117.467 27.0522 117.601 28.2099C114.621 27.1601 112.888 25.911 112.888 24.7226H112.855C112.855 23.7536 112.916 22.7856 113.036 21.8241C112.944 21.0155 112.907 20.2489 112.878 19.5985C112.853 19.0712 112.823 18.3905 112.754 18.0038C112.688 18.0097 112.626 18.0116 112.564 18.0116C112.355 18.0146 112.148 17.9795 111.951 17.9081C111.321 20.1249 111.001 22.4181 111 24.7226C111 38.5302 122.194 49.7226 136 49.7226C137.89 49.7212 139.774 49.5059 141.616 49.081C141.162 48.7787 140.781 48.3787 140.501 47.9101ZM115.441 35.3573C115.019 34.5399 114.645 33.6987 114.32 32.8378C114.32 32.8271 114.32 32.8173 114.32 32.8095H114.312C113.633 30.9915 113.187 29.0949 112.985 27.165C114.05 28.0956 115.717 28.9062 117.79 29.5898C118.302 32.7981 119.383 35.889 120.983 38.7167C118.506 37.7763 116.575 36.621 115.441 35.3573ZM117.261 38.3066C118.598 39.0985 120.209 39.8075 122.046 40.3964C124.021 43.2616 126.528 45.5058 129.37 46.9013C124.501 45.4398 120.247 42.4199 117.261 38.3056V38.3066ZM128.253 30.371C128.488 30.3954 128.719 30.4208 128.957 30.4433C128.82 28.5644 128.751 26.6493 128.749 24.7538C128.837 24.6807 128.92 24.601 128.996 24.5155C129.949 23.3691 129.84 21.4569 129.582 20.0556C129.531 19.7733 129.507 19.5985 129.497 19.4872C129.634 19.4423 129.827 19.3896 130.005 19.3368C130.052 19.3241 130.11 19.3056 130.16 19.2919C130.04 21.0107 129.976 22.8261 129.976 24.7265C129.976 25.6887 129.992 26.6301 130.025 27.5507C129.823 27.936 129.702 28.3585 129.668 28.7923C129.635 29.2262 129.69 29.6623 129.83 30.0741C130.028 30.6678 130.281 31.2419 130.585 31.789C130.487 31.7812 130.39 31.7802 130.292 31.7724C130.575 34.8232 131.034 37.5175 131.602 39.7753C131.192 39.9424 130.819 40.1886 130.504 40.4999C129.831 37.9042 129.347 34.8661 129.062 31.6718C128.918 31.661 128.776 31.6454 128.632 31.6308C128.54 31.2013 128.413 30.78 128.253 30.371ZM143.861 0.98917C143.996 1.19712 144.053 1.44552 144.023 1.69132C143.962 2.24308 143.607 2.51651 143.09 2.69327C143.984 2.97764 144.859 3.3175 145.71 3.71085C145.531 3.83184 145.338 3.93024 145.135 4.00382C144.461 3.52636 143.754 3.09785 143.02 2.72159C142.653 2.82531 142.281 2.90587 141.904 2.9628C141.709 2.99991 141.506 3.03312 141.311 3.07413C141.361 3.14444 141.402 3.23233 141.45 3.31339C142.195 3.62945 142.913 4.00399 143.599 4.43351C143.063 4.55069 142.437 4.66202 141.743 4.75675C141.681 5.21477 141.529 5.65592 141.295 6.0546C142.58 5.90421 143.882 5.68253 144.92 5.35929C147.795 7.57413 150.136 10.828 151.633 14.7226C149.437 15.3446 146.432 15.8944 142.787 16.2187C142.388 12.6435 141.729 9.3378 140.834 6.71671C140.539 7.06973 140.201 7.38494 139.828 7.65519C140.566 9.95206 141.183 12.8817 141.574 16.3173C139.673 16.4589 137.621 16.536 135.435 16.536H135.116C134.749 16.9973 134.315 17.4012 133.828 17.7343C134.362 17.747 134.902 17.7616 135.435 17.7616C137.401 17.7616 139.55 17.6816 141.7 17.5185C141.912 19.746 142.031 22.162 142.031 24.7275C142.031 26.703 141.96 28.5907 141.83 30.371C141.978 30.4486 142.105 30.5597 142.202 30.6954C142.298 30.8311 142.362 30.9875 142.388 31.1523C142.464 31.6239 142.25 32.0419 141.75 32.3954L141.644 32.4755C141.546 33.4267 141.431 34.3446 141.3 35.2216C141.702 35.4599 142.073 35.7454 142.407 36.0722C142.629 34.6601 142.812 33.1864 142.946 31.6776C146.629 31.3544 150.104 30.7802 152.969 29.9774C152.322 33.4726 151.044 36.6532 149.3 39.3066C149.434 39.5761 149.572 39.8437 149.722 40.0878C149.807 40.2294 149.876 40.3681 149.944 40.5058C149.974 40.4628 150.006 40.4237 150.032 40.3827C151.821 39.8065 153.396 39.1132 154.711 38.3485C153.479 40.0324 152.027 41.5433 150.394 42.8407C150.228 44.1786 149.362 45.2968 148.561 46.3319C155.998 42.0058 161 33.9501 161 24.7226C161 13.662 153.815 4.28605 143.861 0.98917ZM146.189 4.8173C146.438 4.67805 146.657 4.49124 146.834 4.26749C150.466 6.19758 153.522 9.05649 155.688 12.5526C155.574 13.1083 154.569 13.7509 152.799 14.3573C151.312 10.4657 149.015 7.16788 146.19 4.8173H146.189ZM143.044 30.4384C143.182 28.5546 143.252 26.6298 143.252 24.7226C143.252 22.2753 143.136 19.7968 142.91 17.411C146.246 17.1044 149.505 16.5976 152.047 15.8651C152.983 18.7241 153.456 21.7143 153.448 24.7226C153.447 26.0265 153.358 27.3289 153.183 28.621C150.498 29.4257 147.035 30.078 143.044 30.4384ZM156.497 35.4775C155.354 36.6903 153.479 37.7948 151.092 38.7001C152.625 36.0263 153.729 32.9306 154.279 29.579C156.31 28.914 157.945 28.1142 159.012 27.2099C158.704 30.1 157.851 32.9056 156.497 35.4775ZM154.47 28.2011C154.604 27.0464 154.672 25.885 154.672 24.7226C154.68 21.5895 154.185 18.4754 153.207 15.4989C154.642 14.997 155.746 14.4062 156.373 13.7284C158.198 17.1052 159.151 20.8842 159.145 24.7226C159.145 24.8046 159.145 24.8857 159.137 24.9696C158.921 26.081 157.235 27.2274 154.47 28.2011ZM135.471 31.661C135.623 31.412 135.85 31.0419 136.063 30.7489H136.084C136.068 30.9442 136.043 31.1444 136.024 31.3007C135.997 31.5214 135.973 31.747 135.952 31.9735C135.731 31.9735 135.509 31.9628 135.284 31.9628C135.348 31.8622 135.409 31.7636 135.471 31.661ZM112.243 16.9374C111.95 16.7353 112.267 16.163 112.382 15.6737C114.779 9.96831 119.198 5.34804 124.79 2.69804C130.383 0.0480497 136.757 -0.445333 142.69 1.31241C143.96 1.85343 141.347 1.89835 140.183 2.3339C139.847 2.45987 139.716 2.57511 139.704 2.69425C139.676 2.99503 140.396 3.32608 140.673 3.9462C140.786 4.20401 140.792 4.53214 140.7 4.88663C140.55 5.46085 140.133 6.10733 139.481 6.65323C139.158 6.92457 138.802 7.15423 138.421 7.33683C136.615 8.19522 137.9 8.19913 138.174 9.65616C138.447 11.1132 135.773 11.286 135.558 9.39933C135.342 7.51261 132.894 8.85538 134.4 10.6776C135.645 12.1845 135.693 14.7948 133.761 16.5175C133.315 16.9104 132.812 17.2319 132.268 17.4706C132.107 17.5429 131.958 17.6044 131.81 17.6659C131.299 17.8788 130.777 18.0643 130.247 18.2216C129.681 18.3925 129.271 18.4911 128.994 18.6122C128.464 18.8388 128.397 19.1552 128.604 20.2382C129.008 22.4237 128.736 24.579 126.867 24.3544C124.998 24.1298 124.157 21.6933 123.861 23.206C123.565 24.7187 126.291 25.2216 126.896 26.9218C127.473 28.5458 126.366 28.0644 127.149 30.2519C127.187 30.3564 127.224 30.4618 127.271 30.579C127.395 30.8893 127.501 31.207 127.587 31.5302C128.052 33.2958 127.337 33.7343 126.827 33.8065C126.469 33.8564 125.222 32.6347 124.07 31.0566C123.743 30.6073 123.428 30.1308 123.138 29.6464C122.778 29.0565 122.472 28.4355 122.224 27.7909C121.201 25.0331 124.164 26.7577 122.693 24.121C121.223 21.4843 123.25 20.7694 122.45 19.8173C121.729 18.9589 120.645 17.7997 119.232 18.8153C119.064 18.9372 118.906 19.0734 118.761 19.2226C118.376 19.6184 118.021 20.0428 117.7 20.4921C116.771 21.7909 116.314 23.1122 116.314 24.3661C116.314 26.0263 114.716 25.7724 114.166 22.6767C113.857 20.9482 113.907 19.3046 113.792 18.2245C113.7 17.3681 113.499 16.8661 112.937 16.9706C112.571 17.04 112.36 17.0175 112.243 16.9374ZM149.054 43.83C148.558 44.8446 147.639 45.8066 146.834 46.9814C146.726 47.1357 146.612 47.2743 146.497 47.412C145.543 48.4989 144.267 48.8876 143.177 48.6718C142.801 48.6019 142.445 48.4524 142.132 48.2335C141.819 48.0145 141.557 47.7311 141.362 47.4023C141.127 47.0075 140.759 46.7091 140.324 46.5605C139.941 46.4242 139.536 46.3558 139.129 46.3583C138.544 46.36 137.962 46.4255 137.392 46.5536C136.713 46.7011 136.045 46.8886 135.389 47.1151C135.285 47.1483 135.184 47.1835 135.086 47.2187C134.101 47.5605 133.544 47.4042 133.073 46.9257C132.603 46.4472 132.232 45.6737 131.619 44.748C130.97 43.7714 130.653 42.8661 130.757 42.1298C130.841 41.5439 131.188 41.0634 131.855 40.7441C131.953 40.6991 132.051 40.6571 132.167 40.6181C133.997 39.9638 134.315 40.0439 135.082 38.6796C135.849 37.3153 136.2 36.1806 138.138 35.7919C139.595 35.4989 140.456 35.8144 141.123 36.2968C141.521 36.5898 141.855 36.9364 142.203 37.2538C142.418 37.4579 142.653 37.6392 142.905 37.7948C144.25 38.5976 144.086 35.6093 145.429 34.9931C146.601 34.4521 147.159 37.161 148.323 39.5937C148.487 39.9394 148.664 40.2773 148.857 40.6005C149.018 40.8672 149.149 41.1508 149.248 41.4462C149.55 42.3319 149.417 43.0946 149.054 43.83ZM135.757 21.4941C135.584 20.2675 136.081 19.4335 136.617 19.7118C137.153 19.9901 136.974 21.1767 138.784 23.1737C140.595 25.1708 138.784 26.411 139.05 28.995C139.141 29.8651 139.531 30.3534 139.968 30.6552C140.828 31.2411 141.87 31.0858 141.169 31.5839C141.071 31.6493 140.974 31.7304 140.862 31.8202C139.769 32.7138 138.084 34.498 137.242 33.6415C136.893 33.287 136.889 32.6474 136.955 31.9638C136.995 31.5517 137.059 31.1298 137.088 30.747C137.14 30.0634 137.088 29.5058 136.6 29.3495C135.964 29.1493 135.403 29.8993 134.871 30.747C134.612 31.1562 134.359 31.5868 134.109 31.9452C133.879 32.2763 133.65 32.5468 133.416 32.6757C132.889 32.9687 132.311 32.538 131.815 31.8564C131.537 31.4638 131.297 31.0444 131.102 30.6044C130.98 30.333 130.874 30.0553 130.782 29.7724C130.05 27.4941 132.699 26.1718 134.971 25.5097C137.242 24.8476 135.927 22.7196 135.757 21.4941Z" fill="#34947C"/>
</g>
<path d="M13.92 33.36C13.92 32.336 13.616 31.472 13.008 30.768C12.4 30.032 11.632 29.344 10.704 28.704C9.808 28.064 8.816 27.408 7.728 26.736C6.672 26.064 5.68 25.28 4.752 24.384C3.856 23.488 3.104 22.432 2.496 21.216C1.888 20 1.584 18.512 1.584 16.752C1.584 15.12 1.824 13.744 2.304 12.624C2.816 11.472 3.504 10.544 4.368 9.84C5.232 9.104 6.256 8.576 7.44 8.256C8.624 7.904 9.888 7.728 11.232 7.728C12.864 7.728 14.384 7.888 15.792 8.208C17.2 8.528 18.368 8.96 19.296 9.504L17.424 14.832C16.88 14.448 16.064 14.096 14.976 13.776C13.92 13.456 12.768 13.296 11.52 13.296C10.272 13.296 9.312 13.552 8.64 14.064C7.968 14.576 7.632 15.328 7.632 16.32C7.632 17.216 7.936 18.016 8.544 18.72C9.152 19.392 9.904 20.048 10.8 20.688C11.728 21.328 12.72 22 13.776 22.704C14.864 23.376 15.856 24.176 16.752 25.104C17.68 26 18.448 27.072 19.056 28.32C19.664 29.536 19.968 30.992 19.968 32.688C19.968 34.384 19.712 35.856 19.2 37.104C18.72 38.352 18.016 39.392 17.088 40.224C16.192 41.024 15.104 41.632 13.824 42.048C12.544 42.464 11.12 42.672 9.552 42.672C7.568 42.672 5.824 42.48 4.32 42.096C2.848 41.712 1.712 41.28 0.912 40.8L2.88 35.376C3.52 35.76 4.4 36.144 5.52 36.528C6.64 36.912 7.84 37.104 9.12 37.104C12.32 37.104 13.92 35.856 13.92 33.36ZM21.2858 18H23.9258V13.488L29.6378 11.712V18H34.2938V23.088H29.6378V33.552C29.6378 34.928 29.7658 35.904 30.0218 36.48C30.3098 37.056 30.8058 37.344 31.5098 37.344C31.9898 37.344 32.4218 37.296 32.8058 37.2C33.1898 37.104 33.6058 36.96 34.0538 36.768L34.7738 41.328C34.0698 41.68 33.2538 41.968 32.3258 42.192C31.3978 42.448 30.4218 42.576 29.3978 42.576C27.5738 42.576 26.1978 42.048 25.2698 40.992C24.3738 39.936 23.9258 38.16 23.9258 35.664V23.088H21.2858V18ZM37.1745 19.44C38.1345 18.864 39.3345 18.4 40.7745 18.048C42.2145 17.696 43.8465 17.52 45.6705 17.52C48.3905 17.52 50.2785 18.224 51.3345 19.632C52.4225 21.04 52.9665 23.04 52.9665 25.632C52.9665 27.136 52.9185 28.624 52.8225 30.096C52.7585 31.536 52.7105 32.96 52.6785 34.368C52.6465 35.744 52.6625 37.088 52.7265 38.4C52.8225 39.68 53.0465 40.896 53.3985 42.048H48.7425L47.8305 39.12H47.6385C47.1265 40.048 46.4065 40.816 45.4785 41.424C44.5505 42.032 43.3825 42.336 41.9745 42.336C40.0865 42.336 38.5985 41.712 37.5105 40.464C36.4225 39.184 35.8785 37.488 35.8785 35.376C35.8785 32.496 36.9025 30.448 38.9505 29.232C40.9985 28.016 43.7665 27.504 47.2545 27.696C47.4145 25.84 47.2865 24.496 46.8705 23.664C46.4865 22.832 45.6385 22.416 44.3265 22.416C43.3665 22.416 42.3745 22.528 41.3505 22.752C40.3265 22.976 39.4145 23.296 38.6145 23.712L37.1745 19.44ZM44.0385 37.44C44.9025 37.44 45.6065 37.232 46.1505 36.816C46.6945 36.368 47.0945 35.888 47.3505 35.376V31.392C46.6145 31.296 45.9105 31.28 45.2385 31.344C44.5665 31.408 43.9745 31.552 43.4625 31.776C42.9505 32 42.5345 32.336 42.2145 32.784C41.9265 33.2 41.7825 33.744 41.7825 34.416C41.7825 35.408 41.9745 36.16 42.3585 36.672C42.7745 37.184 43.3345 37.44 44.0385 37.44ZM55.0826 18H57.7226V13.488L63.4346 11.712V18H68.0906V23.088H63.4346V33.552C63.4346 34.928 63.5626 35.904 63.8186 36.48C64.1066 37.056 64.6026 37.344 65.3066 37.344C65.7866 37.344 66.2186 37.296 66.6026 37.2C66.9866 37.104 67.4026 36.96 67.8506 36.768L68.5706 41.328C67.8666 41.68 67.0506 41.968 66.1226 42.192C65.1946 42.448 64.2186 42.576 63.1946 42.576C61.3706 42.576 59.9946 42.048 59.0666 40.992C58.1706 39.936 57.7226 38.16 57.7226 35.664V23.088H55.0826V18Z" fill="#555555"/>
<path d="M71.0194 8.4H87.8194V13.968H77.0674V22.224H86.8114V27.792H77.0674V36.432H88.0114V42H71.0194V8.4ZM110.7 40.656C109.868 41.36 108.748 41.872 107.34 42.192C105.964 42.512 104.588 42.672 103.212 42.672C101.484 42.672 99.8684 42.384 98.3644 41.808C96.8924 41.2 95.5964 40.208 94.4764 38.832C93.3564 37.456 92.4764 35.648 91.8364 33.408C91.1964 31.168 90.8764 28.416 90.8764 25.152C90.8764 21.76 91.2284 18.944 91.9324 16.704C92.6684 14.464 93.6124 12.688 94.7644 11.376C95.9484 10.032 97.2924 9.088 98.7964 8.544C100.3 8 101.82 7.728 103.356 7.728C104.924 7.728 106.284 7.856 107.436 8.112C108.62 8.368 109.58 8.656 110.316 8.976L109.116 14.304C108.508 13.984 107.788 13.744 106.956 13.584C106.156 13.392 105.196 13.296 104.076 13.296C101.868 13.296 100.172 14.256 98.9884 16.176C97.8044 18.096 97.2124 21.104 97.2124 25.2C97.2124 26.96 97.3404 28.576 97.5964 30.048C97.8844 31.488 98.3164 32.736 98.8924 33.792C99.5004 34.848 100.252 35.664 101.148 36.24C102.076 36.816 103.18 37.104 104.46 37.104C105.58 37.104 106.54 36.96 107.34 36.672C108.14 36.352 108.86 35.984 109.5 35.568L110.7 40.656Z" fill="#34947C"/>
<defs>
<clipPath id="clip0">
<rect width="50" height="50" fill="white" transform="translate(111)"/>
</clipPath>
</defs>
</svg>
